<svg xmlns="http://www.w3.org/2000/svg" xmlns:xlink="http://www.w3.org/1999/xlink" width="400" zoomAndPan="magnify" viewBox="0 0 300 44.999999" height="60" preserveAspectRatio="xMidYMid meet" version="1.0"><defs><g/><clipPath id="319c442937"><path d="M 1 0.929688 L 45.75 0.929688 L 45.75 44 L 1 44 Z M 1 0.929688 " clip-rule="nonzero"/></clipPath></defs><g clip-path="url(#319c442937)"><path fill="#0284c7" d="M 30.882812 0.972656 C 30.792969 0.972656 30.695312 0.976562 30.601562 0.984375 C 26.816406 1.636719 24.734375 5.640625 24.433594 9.167969 C 23.996094 12.367188 25.40625 16.484375 28.921875 17.203125 C 29.429688 17.296875 29.960938 17.253906 30.457031 17.117188 C 34.691406 15.699219 36.585938 10.6875 35.972656 6.535156 C 35.796875 3.851562 33.773438 0.933594 30.882812 0.972656 Z M 14.84375 1.144531 C 12.488281 1.199219 10.65625 3.585938 10.285156 5.832031 C 9.5 10.273438 11.519531 15.796875 16.148438 17.203125 C 16.582031 17.296875 17.03125 17.304688 17.46875 17.238281 C 20.597656 16.714844 21.925781 13.207031 21.792969 10.375 C 21.699219 6.640625 19.757812 2.320312 15.878906 1.269531 C 15.523438 1.175781 15.179688 1.136719 14.84375 1.144531 Z M 41.136719 13.765625 C 37.066406 14.007812 34.277344 18.070312 33.878906 21.863281 C 33.339844 24.597656 34.796875 28.253906 37.917969 28.472656 C 42.269531 28.417969 45.238281 23.769531 45.359375 19.769531 C 45.636719 17.125 44.078125 13.910156 41.136719 13.765625 Z M 5.511719 14.667969 C 3.78125 14.652344 2.078125 15.6875 1.511719 17.449219 C 0 22.15625 3.03125 28.121094 8.019531 29.109375 C 10.101562 29.46875 11.929688 27.867188 12.445312 25.945312 C 13.539062 21.832031 11.292969 17.054688 7.492188 15.1875 C 6.871094 14.839844 6.1875 14.671875 5.511719 14.667969 Z M 23.757812 23.109375 C 20.363281 23.117188 16.914062 24.839844 14.71875 27.402344 C 12.34375 30.394531 10.398438 33.871094 9.636719 37.644531 C 8.714844 40.359375 10.808594 43.484375 13.710938 43.5 C 17.203125 43.597656 20.203125 41.199219 23.675781 41.023438 C 26.621094 40.574219 29.257812 42.105469 31.90625 43.109375 C 34.164062 44.074219 37.277344 43.703125 38.429688 41.277344 C 39.335938 38.804688 38.003906 36.164062 36.898438 33.96875 C 34.644531 30.402344 32.234375 26.65625 28.539062 24.429688 C 27.0625 23.511719 25.414062 23.105469 23.757812 23.109375 Z M 23.757812 23.109375 " fill-opacity="1" fill-rule="nonzero"/></g><g fill="#0284c7" fill-opacity="1"><g transform="translate(61.295123, 33.309293)"><g><path d="M 20.640625 -16.453125 C 20.640625 -15.046875 20.316406 -13.757812 19.671875 -12.59375 C 19.023438 -11.4375 18.035156 -10.5 16.703125 -9.78125 C 15.367188 -9.070312 13.707031 -8.71875 11.71875 -8.71875 L 8.0625 -8.71875 L 8.0625 0 L 2.140625 0 L 2.140625 -24.28125 L 11.71875 -24.28125 C 13.65625 -24.28125 15.289062 -23.941406 16.625 -23.265625 C 17.96875 -22.597656 18.972656 -21.675781 19.640625 -20.5 C 20.304688 -19.320312 20.640625 -17.972656 20.640625 -16.453125 Z M 11.265625 -13.421875 C 12.398438 -13.421875 13.242188 -13.679688 13.796875 -14.203125 C 14.347656 -14.734375 14.625 -15.484375 14.625 -16.453125 C 14.625 -17.421875 14.347656 -18.171875 13.796875 -18.703125 C 13.242188 -19.234375 12.398438 -19.5 11.265625 -19.5 L 8.0625 -19.5 L 8.0625 -13.421875 Z M 11.265625 -13.421875 "/></g></g></g><g fill="#0284c7" fill-opacity="1"><g transform="translate(82.865132, 33.309293)"><g><path d="M 8.0625 -19.53125 L 8.0625 -14.625 L 15.96875 -14.625 L 15.96875 -10.0625 L 8.0625 -10.0625 L 8.0625 -4.734375 L 17.015625 -4.734375 L 17.015625 0 L 2.140625 0 L 2.140625 -24.28125 L 17.015625 -24.28125 L 17.015625 -19.53125 Z M 8.0625 -19.53125 "/></g></g></g><g fill="#0284c7" fill-opacity="1"><g transform="translate(101.566033, 33.309293)"><g><path d="M 19.609375 -24.28125 L 19.609375 -19.53125 L 13.171875 -19.53125 L 13.171875 0 L 7.265625 0 L 7.265625 -19.53125 L 0.828125 -19.53125 L 0.828125 -24.28125 Z M 19.609375 -24.28125 "/></g></g></g><g fill="#0284c7" fill-opacity="1"><g transform="translate(121.995317, 33.309293)"><g/></g></g><g fill="#0284c7" fill-opacity="1"><g transform="translate(129.323588, 33.309293)"><g><path d="M 1.140625 -12.171875 C 1.140625 -14.566406 1.65625 -16.703125 2.6875 -18.578125 C 3.726562 -20.460938 5.175781 -21.925781 7.03125 -22.96875 C 8.882812 -24.019531 10.988281 -24.546875 13.34375 -24.546875 C 16.226562 -24.546875 18.695312 -23.785156 20.75 -22.265625 C 22.800781 -20.742188 24.171875 -18.671875 24.859375 -16.046875 L 18.359375 -16.046875 C 17.878906 -17.054688 17.191406 -17.828125 16.296875 -18.359375 C 15.410156 -18.890625 14.40625 -19.15625 13.28125 -19.15625 C 11.457031 -19.15625 9.976562 -18.519531 8.84375 -17.25 C 7.71875 -15.988281 7.15625 -14.296875 7.15625 -12.171875 C 7.15625 -10.046875 7.71875 -8.347656 8.84375 -7.078125 C 9.976562 -5.816406 11.457031 -5.1875 13.28125 -5.1875 C 14.40625 -5.1875 15.410156 -5.453125 16.296875 -5.984375 C 17.191406 -6.515625 17.878906 -7.285156 18.359375 -8.296875 L 24.859375 -8.296875 C 24.171875 -5.671875 22.800781 -3.601562 20.75 -2.09375 C 18.695312 -0.582031 16.226562 0.171875 13.34375 0.171875 C 10.988281 0.171875 8.882812 -0.347656 7.03125 -1.390625 C 5.175781 -2.441406 3.726562 -3.898438 2.6875 -5.765625 C 1.65625 -7.640625 1.140625 -9.773438 1.140625 -12.171875 Z M 1.140625 -12.171875 "/></g></g></g><g fill="#0284c7" fill-opacity="1"><g transform="translate(155.663875, 33.309293)"><g><path d="M 13.625 0.234375 C 11.34375 0.234375 9.25 -0.289062 7.34375 -1.34375 C 5.445312 -2.40625 3.9375 -3.882812 2.8125 -5.78125 C 1.695312 -7.6875 1.140625 -9.828125 1.140625 -12.203125 C 1.140625 -14.578125 1.695312 -16.707031 2.8125 -18.59375 C 3.9375 -20.488281 5.445312 -21.96875 7.34375 -23.03125 C 9.25 -24.09375 11.34375 -24.625 13.625 -24.625 C 15.90625 -24.625 17.992188 -24.09375 19.890625 -23.03125 C 21.796875 -21.96875 23.296875 -20.488281 24.390625 -18.59375 C 25.484375 -16.707031 26.03125 -14.578125 26.03125 -12.203125 C 26.03125 -9.828125 25.476562 -7.6875 24.375 -5.78125 C 23.269531 -3.882812 21.769531 -2.40625 19.875 -1.34375 C 17.988281 -0.289062 15.90625 0.234375 13.625 0.234375 Z M 13.625 -5.15625 C 15.5625 -5.15625 17.109375 -5.800781 18.265625 -7.09375 C 19.429688 -8.382812 20.015625 -10.085938 20.015625 -12.203125 C 20.015625 -14.347656 19.429688 -16.0625 18.265625 -17.34375 C 17.109375 -18.625 15.5625 -19.265625 13.625 -19.265625 C 11.664062 -19.265625 10.101562 -18.628906 8.9375 -17.359375 C 7.769531 -16.085938 7.1875 -14.367188 7.1875 -12.203125 C 7.1875 -10.054688 7.769531 -8.34375 8.9375 -7.0625 C 10.101562 -5.789062 11.664062 -5.15625 13.625 -5.15625 Z M 13.625 -5.15625 "/></g></g></g><g fill="#0284c7" fill-opacity="1"><g transform="translate(182.833772, 33.309293)"><g><path d="M 23.859375 0 L 17.953125 0 L 8.0625 -14.96875 L 8.0625 0 L 2.140625 0 L 2.140625 -24.28125 L 8.0625 -24.28125 L 17.953125 -9.234375 L 17.953125 -24.28125 L 23.859375 -24.28125 Z M 23.859375 0 "/></g></g></g><g fill="#0284c7" fill-opacity="1"><g transform="translate(208.828396, 33.309293)"><g><path d="M 23.859375 0 L 17.953125 0 L 8.0625 -14.96875 L 8.0625 0 L 2.140625 0 L 2.140625 -24.28125 L 8.0625 -24.28125 L 17.953125 -9.234375 L 17.953125 -24.28125 L 23.859375 -24.28125 Z M 23.859375 0 "/></g></g></g><g fill="#0284c7" fill-opacity="1"><g transform="translate(234.823019, 33.309293)"><g><path d="M 8.0625 -19.53125 L 8.0625 -14.625 L 15.96875 -14.625 L 15.96875 -10.0625 L 8.0625 -10.0625 L 8.0625 -4.734375 L 17.015625 -4.734375 L 17.015625 0 L 2.140625 0 L 2.140625 -24.28125 L 17.015625 -24.28125 L 17.015625 -19.53125 Z M 8.0625 -19.53125 "/></g></g></g><g fill="#0284c7" fill-opacity="1"><g transform="translate(253.523921, 33.309293)"><g><path d="M 1.140625 -12.171875 C 1.140625 -14.566406 1.65625 -16.703125 2.6875 -18.578125 C 3.726562 -20.460938 5.175781 -21.925781 7.03125 -22.96875 C 8.882812 -24.019531 10.988281 -24.546875 13.34375 -24.546875 C 16.226562 -24.546875 18.695312 -23.785156 20.75 -22.265625 C 22.800781 -20.742188 24.171875 -18.671875 24.859375 -16.046875 L 18.359375 -16.046875 C 17.878906 -17.054688 17.191406 -17.828125 16.296875 -18.359375 C 15.410156 -18.890625 14.40625 -19.15625 13.28125 -19.15625 C 11.457031 -19.15625 9.976562 -18.519531 8.84375 -17.25 C 7.71875 -15.988281 7.15625 -14.296875 7.15625 -12.171875 C 7.15625 -10.046875 7.71875 -8.347656 8.84375 -7.078125 C 9.976562 -5.816406 11.457031 -5.1875 13.28125 -5.1875 C 14.40625 -5.1875 15.410156 -5.453125 16.296875 -5.984375 C 17.191406 -6.515625 17.878906 -7.285156 18.359375 -8.296875 L 24.859375 -8.296875 C 24.171875 -5.671875 22.800781 -3.601562 20.75 -2.09375 C 18.695312 -0.582031 16.226562 0.171875 13.34375 0.171875 C 10.988281 0.171875 8.882812 -0.347656 7.03125 -1.390625 C 5.175781 -2.441406 3.726562 -3.898438 2.6875 -5.765625 C 1.65625 -7.640625 1.140625 -9.773438 1.140625 -12.171875 Z M 1.140625 -12.171875 "/></g></g></g><g fill="#0284c7" fill-opacity="1"><g transform="translate(279.864207, 33.309293)"><g><path d="M 19.609375 -24.28125 L 19.609375 -19.53125 L 13.171875 -19.53125 L 13.171875 0 L 7.265625 0 L 7.265625 -19.53125 L 0.828125 -19.53125 L 0.828125 -24.28125 Z M 19.609375 -24.28125 "/></g></g></g></svg>