<svg xmlns="http://www.w3.org/2000/svg" xmlns:xlink="http://www.w3.org/1999/xlink" width="500" zoomAndPan="magnify" viewBox="0 0 375 374.999991" height="500" preserveAspectRatio="xMidYMid meet" version="1.0"><defs><clipPath id="1556b95e21"><path d="M 9 10.3125 L 373 10.3125 L 373 361 L 9 361 Z M 9 10.3125 " clip-rule="nonzero"/></clipPath></defs><g clip-path="url(#1556b95e21)"><path fill="#60a5fa" d="M 253.734375 10.660156 C 252.96875 10.667969 252.179688 10.707031 251.402344 10.769531 C 220.316406 16.132812 203.222656 49.003906 200.746094 77.988281 C 197.128906 104.289062 208.71875 138.097656 237.597656 143.988281 C 241.789062 144.785156 246.140625 144.421875 250.234375 143.3125 C 285.011719 131.652344 300.574219 90.464844 295.546875 56.347656 C 294.085938 34.316406 277.476562 10.355469 253.730469 10.660156 Z M 121.945312 12.070312 C 102.617188 12.542969 87.558594 32.148438 84.496094 50.574219 C 78.039062 87.082031 94.648438 132.445312 132.683594 143.992188 C 136.246094 144.765625 139.929688 144.847656 143.527344 144.292969 C 169.234375 140.007812 180.125 111.183594 179.050781 87.917969 C 178.277344 57.222656 162.332031 21.734375 130.457031 13.101562 C 127.546875 12.332031 124.707031 12.003906 121.945312 12.074219 Z M 337.953125 115.761719 C 304.515625 117.761719 281.59375 151.125 278.324219 182.277344 C 273.898438 204.746094 285.878906 234.796875 311.515625 236.589844 C 347.261719 236.148438 371.648438 197.953125 372.660156 165.085938 C 374.921875 143.347656 362.117188 116.960938 337.953125 115.761719 Z M 45.289062 123.164062 C 31.066406 123.042969 17.074219 131.5625 12.425781 146.023438 C 0.0234375 184.707031 24.929688 233.699219 65.898438 241.828125 C 82.996094 244.753906 98.019531 231.621094 102.261719 215.824219 C 111.246094 182.03125 92.792969 142.792969 61.558594 127.457031 C 56.472656 124.597656 50.855469 123.21875 45.289062 123.171875 Z M 195.1875 192.527344 C 167.300781 192.585938 138.976562 206.738281 120.917969 227.804688 C 101.414062 252.359375 85.4375 280.933594 79.183594 311.921875 C 71.589844 334.226562 88.800781 359.894531 112.644531 360.050781 C 141.332031 360.847656 165.984375 341.148438 194.507812 339.6875 C 218.710938 335.996094 240.378906 348.585938 262.136719 356.824219 C 280.664062 364.746094 306.261719 361.710938 315.71875 341.773438 C 323.160156 321.453125 312.207031 299.785156 303.136719 281.738281 C 284.636719 252.449219 264.8125 221.664062 234.480469 203.375 C 222.320312 195.835938 208.808594 192.5 195.1875 192.527344 Z M 195.1875 192.527344 " fill-opacity="1" fill-rule="nonzero"/></g></svg>