<svg xmlns="http://www.w3.org/2000/svg" xmlns:xlink="http://www.w3.org/1999/xlink" width="400" zoomAndPan="magnify" viewBox="0 0 300 44.999999" height="60" preserveAspectRatio="xMidYMid meet" version="1.0"><defs><g/><clipPath id="f2644b099f"><path d="M 1 0.929688 L 45.75 0.929688 L 45.75 44 L 1 44 Z M 1 0.929688 " clip-rule="nonzero"/></clipPath></defs><g clip-path="url(#f2644b099f)"><path fill="#000000" d="M 30.957031 0.972656 C 30.863281 0.972656 30.765625 0.976562 30.671875 0.984375 C 26.878906 1.644531 24.792969 5.679688 24.492188 9.238281 C 24.050781 12.464844 25.464844 16.613281 28.988281 17.339844 C 29.5 17.4375 30.03125 17.390625 30.527344 17.253906 C 34.773438 15.824219 36.671875 10.769531 36.058594 6.582031 C 35.878906 3.875 33.851562 0.933594 30.957031 0.972656 Z M 14.875 1.144531 C 12.519531 1.203125 10.679688 3.609375 10.308594 5.871094 C 9.519531 10.351562 11.546875 15.921875 16.1875 17.339844 C 16.621094 17.433594 17.070312 17.445312 17.511719 17.375 C 20.648438 16.847656 21.976562 13.3125 21.84375 10.457031 C 21.75 6.6875 19.804688 2.332031 15.914062 1.273438 C 15.558594 1.175781 15.214844 1.136719 14.875 1.144531 Z M 41.230469 13.875 C 37.152344 14.117188 34.355469 18.214844 33.957031 22.039062 C 33.417969 24.796875 34.878906 28.484375 38.003906 28.707031 C 42.367188 28.652344 45.34375 23.960938 45.464844 19.929688 C 45.742188 17.261719 44.179688 14.019531 41.230469 13.875 Z M 5.523438 14.78125 C 3.789062 14.765625 2.082031 15.8125 1.515625 17.589844 C 0 22.335938 3.039062 28.351562 8.039062 29.347656 C 10.125 29.707031 11.957031 28.09375 12.476562 26.15625 C 13.570312 22.007812 11.320312 17.191406 7.507812 15.308594 C 6.886719 14.957031 6.203125 14.789062 5.523438 14.78125 Z M 23.8125 23.296875 C 20.410156 23.304688 16.953125 25.042969 14.75 27.628906 C 12.371094 30.640625 10.421875 34.148438 9.660156 37.953125 C 8.734375 40.691406 10.832031 43.839844 13.742188 43.859375 C 17.242188 43.957031 20.25 41.539062 23.730469 41.359375 C 26.683594 40.90625 29.328125 42.453125 31.980469 43.464844 C 34.242188 44.4375 37.363281 44.0625 38.519531 41.617188 C 39.425781 39.121094 38.089844 36.460938 36.984375 34.246094 C 34.726562 30.652344 32.308594 26.871094 28.605469 24.628906 C 27.125 23.703125 25.476562 23.292969 23.8125 23.296875 Z M 23.8125 23.296875 " fill-opacity="1" fill-rule="nonzero"/></g><g fill="#000000" fill-opacity="1"><g transform="translate(61.295123, 33.309293)"><g><path d="M 20.640625 -16.453125 C 20.640625 -15.046875 20.316406 -13.757812 19.671875 -12.59375 C 19.023438 -11.4375 18.035156 -10.5 16.703125 -9.78125 C 15.367188 -9.070312 13.707031 -8.71875 11.71875 -8.71875 L 8.0625 -8.71875 L 8.0625 0 L 2.140625 0 L 2.140625 -24.28125 L 11.71875 -24.28125 C 13.65625 -24.28125 15.289062 -23.941406 16.625 -23.265625 C 17.96875 -22.597656 18.972656 -21.675781 19.640625 -20.5 C 20.304688 -19.320312 20.640625 -17.972656 20.640625 -16.453125 Z M 11.265625 -13.421875 C 12.398438 -13.421875 13.242188 -13.679688 13.796875 -14.203125 C 14.347656 -14.734375 14.625 -15.484375 14.625 -16.453125 C 14.625 -17.421875 14.347656 -18.171875 13.796875 -18.703125 C 13.242188 -19.234375 12.398438 -19.5 11.265625 -19.5 L 8.0625 -19.5 L 8.0625 -13.421875 Z M 11.265625 -13.421875 "/></g></g></g><g fill="#000000" fill-opacity="1"><g transform="translate(82.865132, 33.309293)"><g><path d="M 8.0625 -19.53125 L 8.0625 -14.625 L 15.96875 -14.625 L 15.96875 -10.0625 L 8.0625 -10.0625 L 8.0625 -4.734375 L 17.015625 -4.734375 L 17.015625 0 L 2.140625 0 L 2.140625 -24.28125 L 17.015625 -24.28125 L 17.015625 -19.53125 Z M 8.0625 -19.53125 "/></g></g></g><g fill="#000000" fill-opacity="1"><g transform="translate(101.566033, 33.309293)"><g><path d="M 19.609375 -24.28125 L 19.609375 -19.53125 L 13.171875 -19.53125 L 13.171875 0 L 7.265625 0 L 7.265625 -19.53125 L 0.828125 -19.53125 L 0.828125 -24.28125 Z M 19.609375 -24.28125 "/></g></g></g><g fill="#000000" fill-opacity="1"><g transform="translate(121.995317, 33.309293)"><g/></g></g><g fill="#000000" fill-opacity="1"><g transform="translate(129.323588, 33.309293)"><g><path d="M 1.140625 -12.171875 C 1.140625 -14.566406 1.65625 -16.703125 2.6875 -18.578125 C 3.726562 -20.460938 5.175781 -21.925781 7.03125 -22.96875 C 8.882812 -24.019531 10.988281 -24.546875 13.34375 -24.546875 C 16.226562 -24.546875 18.695312 -23.785156 20.75 -22.265625 C 22.800781 -20.742188 24.171875 -18.671875 24.859375 -16.046875 L 18.359375 -16.046875 C 17.878906 -17.054688 17.191406 -17.828125 16.296875 -18.359375 C 15.410156 -18.890625 14.40625 -19.15625 13.28125 -19.15625 C 11.457031 -19.15625 9.976562 -18.519531 8.84375 -17.25 C 7.71875 -15.988281 7.15625 -14.296875 7.15625 -12.171875 C 7.15625 -10.046875 7.71875 -8.347656 8.84375 -7.078125 C 9.976562 -5.816406 11.457031 -5.1875 13.28125 -5.1875 C 14.40625 -5.1875 15.410156 -5.453125 16.296875 -5.984375 C 17.191406 -6.515625 17.878906 -7.285156 18.359375 -8.296875 L 24.859375 -8.296875 C 24.171875 -5.671875 22.800781 -3.601562 20.75 -2.09375 C 18.695312 -0.582031 16.226562 0.171875 13.34375 0.171875 C 10.988281 0.171875 8.882812 -0.347656 7.03125 -1.390625 C 5.175781 -2.441406 3.726562 -3.898438 2.6875 -5.765625 C 1.65625 -7.640625 1.140625 -9.773438 1.140625 -12.171875 Z M 1.140625 -12.171875 "/></g></g></g><g fill="#000000" fill-opacity="1"><g transform="translate(155.663875, 33.309293)"><g><path d="M 13.625 0.234375 C 11.34375 0.234375 9.25 -0.289062 7.34375 -1.34375 C 5.445312 -2.40625 3.9375 -3.882812 2.8125 -5.78125 C 1.695312 -7.6875 1.140625 -9.828125 1.140625 -12.203125 C 1.140625 -14.578125 1.695312 -16.707031 2.8125 -18.59375 C 3.9375 -20.488281 5.445312 -21.96875 7.34375 -23.03125 C 9.25 -24.09375 11.34375 -24.625 13.625 -24.625 C 15.90625 -24.625 17.992188 -24.09375 19.890625 -23.03125 C 21.796875 -21.96875 23.296875 -20.488281 24.390625 -18.59375 C 25.484375 -16.707031 26.03125 -14.578125 26.03125 -12.203125 C 26.03125 -9.828125 25.476562 -7.6875 24.375 -5.78125 C 23.269531 -3.882812 21.769531 -2.40625 19.875 -1.34375 C 17.988281 -0.289062 15.90625 0.234375 13.625 0.234375 Z M 13.625 -5.15625 C 15.5625 -5.15625 17.109375 -5.800781 18.265625 -7.09375 C 19.429688 -8.382812 20.015625 -10.085938 20.015625 -12.203125 C 20.015625 -14.347656 19.429688 -16.0625 18.265625 -17.34375 C 17.109375 -18.625 15.5625 -19.265625 13.625 -19.265625 C 11.664062 -19.265625 10.101562 -18.628906 8.9375 -17.359375 C 7.769531 -16.085938 7.1875 -14.367188 7.1875 -12.203125 C 7.1875 -10.054688 7.769531 -8.34375 8.9375 -7.0625 C 10.101562 -5.789062 11.664062 -5.15625 13.625 -5.15625 Z M 13.625 -5.15625 "/></g></g></g><g fill="#000000" fill-opacity="1"><g transform="translate(182.833772, 33.309293)"><g><path d="M 23.859375 0 L 17.953125 0 L 8.0625 -14.96875 L 8.0625 0 L 2.140625 0 L 2.140625 -24.28125 L 8.0625 -24.28125 L 17.953125 -9.234375 L 17.953125 -24.28125 L 23.859375 -24.28125 Z M 23.859375 0 "/></g></g></g><g fill="#000000" fill-opacity="1"><g transform="translate(208.828396, 33.309293)"><g><path d="M 23.859375 0 L 17.953125 0 L 8.0625 -14.96875 L 8.0625 0 L 2.140625 0 L 2.140625 -24.28125 L 8.0625 -24.28125 L 17.953125 -9.234375 L 17.953125 -24.28125 L 23.859375 -24.28125 Z M 23.859375 0 "/></g></g></g><g fill="#000000" fill-opacity="1"><g transform="translate(234.823019, 33.309293)"><g><path d="M 8.0625 -19.53125 L 8.0625 -14.625 L 15.96875 -14.625 L 15.96875 -10.0625 L 8.0625 -10.0625 L 8.0625 -4.734375 L 17.015625 -4.734375 L 17.015625 0 L 2.140625 0 L 2.140625 -24.28125 L 17.015625 -24.28125 L 17.015625 -19.53125 Z M 8.0625 -19.53125 "/></g></g></g><g fill="#000000" fill-opacity="1"><g transform="translate(253.523921, 33.309293)"><g><path d="M 1.140625 -12.171875 C 1.140625 -14.566406 1.65625 -16.703125 2.6875 -18.578125 C 3.726562 -20.460938 5.175781 -21.925781 7.03125 -22.96875 C 8.882812 -24.019531 10.988281 -24.546875 13.34375 -24.546875 C 16.226562 -24.546875 18.695312 -23.785156 20.75 -22.265625 C 22.800781 -20.742188 24.171875 -18.671875 24.859375 -16.046875 L 18.359375 -16.046875 C 17.878906 -17.054688 17.191406 -17.828125 16.296875 -18.359375 C 15.410156 -18.890625 14.40625 -19.15625 13.28125 -19.15625 C 11.457031 -19.15625 9.976562 -18.519531 8.84375 -17.25 C 7.71875 -15.988281 7.15625 -14.296875 7.15625 -12.171875 C 7.15625 -10.046875 7.71875 -8.347656 8.84375 -7.078125 C 9.976562 -5.816406 11.457031 -5.1875 13.28125 -5.1875 C 14.40625 -5.1875 15.410156 -5.453125 16.296875 -5.984375 C 17.191406 -6.515625 17.878906 -7.285156 18.359375 -8.296875 L 24.859375 -8.296875 C 24.171875 -5.671875 22.800781 -3.601562 20.75 -2.09375 C 18.695312 -0.582031 16.226562 0.171875 13.34375 0.171875 C 10.988281 0.171875 8.882812 -0.347656 7.03125 -1.390625 C 5.175781 -2.441406 3.726562 -3.898438 2.6875 -5.765625 C 1.65625 -7.640625 1.140625 -9.773438 1.140625 -12.171875 Z M 1.140625 -12.171875 "/></g></g></g><g fill="#000000" fill-opacity="1"><g transform="translate(279.864207, 33.309293)"><g><path d="M 19.609375 -24.28125 L 19.609375 -19.53125 L 13.171875 -19.53125 L 13.171875 0 L 7.265625 0 L 7.265625 -19.53125 L 0.828125 -19.53125 L 0.828125 -24.28125 Z M 19.609375 -24.28125 "/></g></g></g></svg>